<svg width="67.000000" height="68.000000" viewBox="0 0 67 68" fill="none" xmlns="http://www.w3.org/2000/svg" xmlns:xlink="http://www.w3.org/1999/xlink">
	<desc>
			Created with Pixso.
	</desc>
	<defs/>
	<path id="Ellipse" d="M2 33.62C2 16.15 16.24 2 33.8 2C37.04 2 40.17 2.48 43.11 3.37" stroke="#FFFFFF" stroke-opacity="1.000000" stroke-width="4.000000" stroke-linejoin="round" stroke-linecap="round"/>
	<path id="Subtract" d="M40.6538 40.4309C36.873 44.1897 30.7434 44.1897 26.9629 40.4309C23.1824 36.6721 23.1824 30.5779 26.9629 26.8191C30.7434 23.0603 57.3188 7.50006 58.7017 8.87506C60.0847 10.2501 44.4343 36.6721 40.6538 40.4309ZM33.8081 30.8751C32.2805 30.8751 31.0422 32.1063 31.0422 33.6251C31.0422 35.1439 32.2805 36.3751 33.8081 36.3751C35.3357 36.3751 36.574 35.1439 36.574 33.6251C36.574 32.1063 35.3357 30.8751 33.8081 30.8751Z" clip-rule="evenodd" fill="#FFFFFF" fill-opacity="1.000000" fill-rule="evenodd"/>
	<ellipse id="Ellipse 2" cx="6.148926" cy="50.125000" rx="2.765957" ry="2.750000" fill="#FFFFFF" fill-opacity="1.000000"/>
	<ellipse id="Ellipse 2.1" cx="17.212646" cy="61.125000" rx="2.765957" ry="2.750000" fill="#FFFFFF" fill-opacity="1.000000"/>
	<ellipse id="Ellipse 2.2" cx="33.808350" cy="65.250000" rx="2.765957" ry="2.750000" fill="#FFFFFF" fill-opacity="1.000000"/>
	<ellipse id="Ellipse 2.3" cx="50.404053" cy="61.125000" rx="2.765957" ry="2.750000" fill="#FFFFFF" fill-opacity="1.000000"/>
	<ellipse id="Ellipse 2.4" cx="60.084961" cy="50.125000" rx="2.765957" ry="2.750000" fill="#FFFFFF" fill-opacity="1.000000"/>
	<ellipse id="Ellipse 2.5" cx="64.233887" cy="33.625000" rx="2.765957" ry="2.750000" fill="#FFFFFF" fill-opacity="1.000000"/>
</svg>
